<svg width="59" height="66" viewBox="0 0 59 66" fill="none" xmlns="http://www.w3.org/2000/svg">
<path d="M6.165 41.09C3.435 41.09 2.07 40.79 2.07 40.19V11.03C2.07 10.01 2.535 9.5 3.465 9.5H11.385C15.825 9.5 19.02 10.415 20.97 12.245C22.95 14.075 23.94 16.73 23.94 20.21C23.94 23.09 23.01 25.73 21.15 28.13C20.22 29.33 18.855 30.29 17.055 31.01C15.255 31.73 13.155 32.09 10.755 32.09V40.145C10.755 40.505 10.185 40.76 9.045 40.91C7.935 41.03 6.975 41.09 6.165 41.09ZM10.755 17.33V24.44H11.34C12.39 24.44 13.275 24.11 13.995 23.45C14.715 22.79 15.075 21.86 15.075 20.66C15.075 19.46 14.82 18.605 14.31 18.095C13.83 17.585 12.96 17.33 11.7 17.33H10.755Z" fill="#1A4E42"/>
<path d="M10.0984 41.09C7.36835 41.09 6.00335 40.79 6.00335 40.19V11.03C6.00335 10.01 6.46835 9.5 7.39835 9.5H15.3184C19.7584 9.5 22.9534 10.415 24.9034 12.245C26.8834 14.075 27.8733 16.73 27.8733 20.21C27.8733 23.09 26.9434 25.73 25.0834 28.13C24.1534 29.33 22.7884 30.29 20.9883 31.01C19.1883 31.73 17.0883 32.09 14.6883 32.09V40.145C14.6883 40.505 14.1183 40.76 12.9783 40.91C11.8683 41.03 10.9083 41.09 10.0984 41.09ZM14.6883 17.33V24.44H15.2733C16.3233 24.44 17.2083 24.11 17.9284 23.45C18.6484 22.79 19.0083 21.86 19.0083 20.66C19.0083 19.46 18.7534 18.605 18.2434 18.095C17.7634 17.585 16.8934 17.33 15.6334 17.33H14.6883Z" fill="white"/>
<path d="M27.165 60.09C24.435 60.09 23.07 59.79 23.07 59.19V30.03C23.07 29.01 23.535 28.5 24.465 28.5H32.385C36.825 28.5 40.02 29.415 41.97 31.245C43.95 33.075 44.94 35.73 44.94 39.21C44.94 42.09 44.01 44.73 42.15 47.13C41.22 48.33 39.855 49.29 38.055 50.01C36.255 50.73 34.155 51.09 31.755 51.09V59.145C31.755 59.505 31.185 59.76 30.045 59.91C28.935 60.03 27.975 60.09 27.165 60.09ZM31.755 36.33V43.44H32.34C33.39 43.44 34.275 43.11 34.995 42.45C35.715 41.79 36.075 40.86 36.075 39.66C36.075 38.46 35.82 37.605 35.31 37.095C34.83 36.585 33.96 36.33 32.7 36.33H31.755Z" fill="#2FDF87"/>
<path d="M31.165 63.09C28.435 63.09 27.07 62.79 27.07 62.19V33.03C27.07 32.01 27.535 31.5 28.465 31.5H36.385C40.825 31.5 44.02 32.415 45.97 34.245C47.95 36.075 48.94 38.73 48.94 42.21C48.94 45.09 48.01 47.73 46.15 50.13C45.22 51.33 43.855 52.29 42.055 53.01C40.255 53.73 38.155 54.09 35.755 54.09V62.145C35.755 62.505 35.185 62.76 34.045 62.91C32.935 63.03 31.975 63.09 31.165 63.09ZM35.755 39.33V46.44H36.34C37.39 46.44 38.275 46.11 38.995 45.45C39.715 44.79 40.075 43.86 40.075 42.66C40.075 41.46 39.82 40.605 39.31 40.095C38.83 39.585 37.96 39.33 36.7 39.33H35.755Z" fill="white"/>
</svg>
